<mxfile host="app.diagrams.net" modified="2021-06-15T09:49:49.533Z" agent="5.0 (Windows NT 10.0; Win64; x64) AppleWebKit/537.36 (KHTML, like Gecko) Chrome/91.0.4472.101 Safari/537.36" etag="PDwPI6zIAWN5AVmWIkSK" version="14.7.8" type="github">
  <diagram id="C5RBs43oDa-KdzZeNtuy" name="Page-1">
    <mxGraphModel dx="2249" dy="762" grid="1" gridSize="10" guides="1" tooltips="1" connect="1" arrows="1" fold="1" page="1" pageScale="1" pageWidth="827" pageHeight="1169" math="0" shadow="0">
      <root>
        <mxCell id="WIyWlLk6GJQsqaUBKTNV-0" />
        <mxCell id="WIyWlLk6GJQsqaUBKTNV-1" parent="WIyWlLk6GJQsqaUBKTNV-0" />
        <mxCell id="Pjd6Ebtt9k18y8woGf1v-6" style="edgeStyle=orthogonalEdgeStyle;rounded=0;orthogonalLoop=1;jettySize=auto;html=1;exitX=0.5;exitY=1;exitDx=0;exitDy=0;entryX=0.5;entryY=0;entryDx=0;entryDy=0;" edge="1" parent="WIyWlLk6GJQsqaUBKTNV-1" source="WIyWlLk6GJQsqaUBKTNV-3" target="Pjd6Ebtt9k18y8woGf1v-0">
          <mxGeometry relative="1" as="geometry" />
        </mxCell>
        <mxCell id="WIyWlLk6GJQsqaUBKTNV-3" value="&lt;font style=&quot;vertical-align: inherit&quot;&gt;&lt;font style=&quot;vertical-align: inherit&quot;&gt;在线题库系统&lt;/font&gt;&lt;/font&gt;" style="rounded=1;whiteSpace=wrap;html=1;fontSize=12;glass=0;strokeWidth=1;shadow=0;fillColor=#dae8fc;strokeColor=#6c8ebf;" parent="WIyWlLk6GJQsqaUBKTNV-1" vertex="1">
          <mxGeometry x="160" y="80" width="120" height="40" as="geometry" />
        </mxCell>
        <mxCell id="Pjd6Ebtt9k18y8woGf1v-7" style="edgeStyle=orthogonalEdgeStyle;rounded=0;orthogonalLoop=1;jettySize=auto;html=1;exitX=0.5;exitY=1;exitDx=0;exitDy=0;entryX=0.5;entryY=0;entryDx=0;entryDy=0;" edge="1" parent="WIyWlLk6GJQsqaUBKTNV-1" source="Pjd6Ebtt9k18y8woGf1v-0" target="Pjd6Ebtt9k18y8woGf1v-2">
          <mxGeometry relative="1" as="geometry" />
        </mxCell>
        <mxCell id="Pjd6Ebtt9k18y8woGf1v-0" value="&lt;font style=&quot;vertical-align: inherit&quot;&gt;&lt;font style=&quot;vertical-align: inherit&quot;&gt;&lt;font style=&quot;vertical-align: inherit&quot;&gt;&lt;font style=&quot;vertical-align: inherit&quot;&gt;试题目录（专业 年级 学科）&lt;/font&gt;&lt;/font&gt;&lt;/font&gt;&lt;/font&gt;" style="rounded=1;whiteSpace=wrap;html=1;fontSize=12;glass=0;strokeWidth=1;shadow=0;fillColor=#d5e8d4;strokeColor=#82b366;" vertex="1" parent="WIyWlLk6GJQsqaUBKTNV-1">
          <mxGeometry x="160" y="140" width="120" height="40" as="geometry" />
        </mxCell>
        <mxCell id="Pjd6Ebtt9k18y8woGf1v-4" value="yes" style="edgeStyle=orthogonalEdgeStyle;rounded=0;orthogonalLoop=1;jettySize=auto;html=1;exitX=0.5;exitY=1;exitDx=0;exitDy=0;" edge="1" parent="WIyWlLk6GJQsqaUBKTNV-1" source="Pjd6Ebtt9k18y8woGf1v-2">
          <mxGeometry relative="1" as="geometry">
            <mxPoint x="220" y="290" as="targetPoint" />
            <Array as="points">
              <mxPoint x="220" y="270" />
              <mxPoint x="220" y="270" />
            </Array>
          </mxGeometry>
        </mxCell>
        <mxCell id="Pjd6Ebtt9k18y8woGf1v-16" value="no" style="edgeStyle=orthogonalEdgeStyle;rounded=0;orthogonalLoop=1;jettySize=auto;html=1;entryX=0;entryY=0.5;entryDx=0;entryDy=0;" edge="1" parent="WIyWlLk6GJQsqaUBKTNV-1" source="Pjd6Ebtt9k18y8woGf1v-2" target="Pjd6Ebtt9k18y8woGf1v-9">
          <mxGeometry relative="1" as="geometry" />
        </mxCell>
        <mxCell id="Pjd6Ebtt9k18y8woGf1v-2" value="&lt;font style=&quot;vertical-align: inherit&quot;&gt;&lt;font style=&quot;vertical-align: inherit&quot;&gt;试题目录中学科&lt;/font&gt;&lt;/font&gt;" style="rhombus;whiteSpace=wrap;html=1;fillColor=#f8cecc;strokeColor=#b85450;" vertex="1" parent="WIyWlLk6GJQsqaUBKTNV-1">
          <mxGeometry x="160" y="210" width="120" height="40" as="geometry" />
        </mxCell>
        <mxCell id="Pjd6Ebtt9k18y8woGf1v-14" style="edgeStyle=orthogonalEdgeStyle;rounded=0;orthogonalLoop=1;jettySize=auto;html=1;" edge="1" parent="WIyWlLk6GJQsqaUBKTNV-1" source="Pjd6Ebtt9k18y8woGf1v-5" target="Pjd6Ebtt9k18y8woGf1v-13">
          <mxGeometry relative="1" as="geometry" />
        </mxCell>
        <mxCell id="Pjd6Ebtt9k18y8woGf1v-5" value="&lt;font style=&quot;vertical-align: inherit&quot;&gt;&lt;font style=&quot;vertical-align: inherit&quot;&gt;知识点管理&lt;/font&gt;&lt;/font&gt;" style="rounded=1;whiteSpace=wrap;html=1;fontSize=12;glass=0;strokeWidth=1;shadow=0;fillColor=#d5e8d4;strokeColor=#82b366;" vertex="1" parent="WIyWlLk6GJQsqaUBKTNV-1">
          <mxGeometry x="160" y="290" width="120" height="40" as="geometry" />
        </mxCell>
        <mxCell id="Pjd6Ebtt9k18y8woGf1v-39" style="edgeStyle=none;rounded=0;orthogonalLoop=1;jettySize=auto;html=1;" edge="1" parent="WIyWlLk6GJQsqaUBKTNV-1" source="Pjd6Ebtt9k18y8woGf1v-9">
          <mxGeometry relative="1" as="geometry">
            <mxPoint x="380" y="900" as="targetPoint" />
          </mxGeometry>
        </mxCell>
        <mxCell id="Pjd6Ebtt9k18y8woGf1v-9" value="无学科" style="rounded=1;whiteSpace=wrap;html=1;fillColor=#e1d5e7;strokeColor=#9673a6;" vertex="1" parent="WIyWlLk6GJQsqaUBKTNV-1">
          <mxGeometry x="320" y="210" width="120" height="40" as="geometry" />
        </mxCell>
        <mxCell id="Pjd6Ebtt9k18y8woGf1v-36" value="" style="edgeStyle=none;rounded=0;orthogonalLoop=1;jettySize=auto;html=1;" edge="1" parent="WIyWlLk6GJQsqaUBKTNV-1" source="Pjd6Ebtt9k18y8woGf1v-10" target="Pjd6Ebtt9k18y8woGf1v-28">
          <mxGeometry relative="1" as="geometry" />
        </mxCell>
        <mxCell id="Pjd6Ebtt9k18y8woGf1v-10" value="&lt;font style=&quot;vertical-align: inherit&quot;&gt;&lt;font style=&quot;vertical-align: inherit&quot;&gt;试题管理&lt;/font&gt;&lt;/font&gt;" style="rounded=1;whiteSpace=wrap;html=1;fontSize=12;glass=0;strokeWidth=1;shadow=0;fillColor=#d5e8d4;strokeColor=#82b366;" vertex="1" parent="WIyWlLk6GJQsqaUBKTNV-1">
          <mxGeometry x="160" y="430" width="120" height="30" as="geometry" />
        </mxCell>
        <mxCell id="Pjd6Ebtt9k18y8woGf1v-15" value="" style="edgeStyle=orthogonalEdgeStyle;rounded=0;orthogonalLoop=1;jettySize=auto;html=1;" edge="1" parent="WIyWlLk6GJQsqaUBKTNV-1" source="Pjd6Ebtt9k18y8woGf1v-13" target="Pjd6Ebtt9k18y8woGf1v-10">
          <mxGeometry relative="1" as="geometry" />
        </mxCell>
        <mxCell id="Pjd6Ebtt9k18y8woGf1v-47" value="no" style="edgeStyle=none;rounded=0;orthogonalLoop=1;jettySize=auto;html=1;" edge="1" parent="WIyWlLk6GJQsqaUBKTNV-1" source="Pjd6Ebtt9k18y8woGf1v-13">
          <mxGeometry relative="1" as="geometry">
            <mxPoint x="70" y="370" as="targetPoint" />
          </mxGeometry>
        </mxCell>
        <mxCell id="Pjd6Ebtt9k18y8woGf1v-13" value="&lt;font style=&quot;vertical-align: inherit&quot;&gt;&lt;font style=&quot;vertical-align: inherit&quot;&gt;不同知识点&lt;/font&gt;&lt;/font&gt;" style="rhombus;whiteSpace=wrap;html=1;fillColor=#f8cecc;strokeColor=#b85450;" vertex="1" parent="WIyWlLk6GJQsqaUBKTNV-1">
          <mxGeometry x="160" y="350" width="120" height="40" as="geometry" />
        </mxCell>
        <mxCell id="Pjd6Ebtt9k18y8woGf1v-32" style="edgeStyle=none;rounded=0;orthogonalLoop=1;jettySize=auto;html=1;" edge="1" parent="WIyWlLk6GJQsqaUBKTNV-1" source="Pjd6Ebtt9k18y8woGf1v-19" target="Pjd6Ebtt9k18y8woGf1v-22">
          <mxGeometry relative="1" as="geometry">
            <mxPoint x="220" y="700" as="targetPoint" />
          </mxGeometry>
        </mxCell>
        <mxCell id="Pjd6Ebtt9k18y8woGf1v-19" value="&lt;font style=&quot;vertical-align: inherit&quot;&gt;&lt;font style=&quot;vertical-align: inherit&quot;&gt;组卷&lt;/font&gt;&lt;/font&gt;" style="rounded=1;whiteSpace=wrap;html=1;fontSize=12;glass=0;strokeWidth=1;shadow=0;fillColor=#d5e8d4;strokeColor=#82b366;" vertex="1" parent="WIyWlLk6GJQsqaUBKTNV-1">
          <mxGeometry x="160" y="650" width="120" height="40" as="geometry" />
        </mxCell>
        <mxCell id="Pjd6Ebtt9k18y8woGf1v-38" style="edgeStyle=none;rounded=0;orthogonalLoop=1;jettySize=auto;html=1;entryX=0.5;entryY=0;entryDx=0;entryDy=0;" edge="1" parent="WIyWlLk6GJQsqaUBKTNV-1" source="Pjd6Ebtt9k18y8woGf1v-21" target="Pjd6Ebtt9k18y8woGf1v-37">
          <mxGeometry relative="1" as="geometry" />
        </mxCell>
        <mxCell id="Pjd6Ebtt9k18y8woGf1v-21" value="&lt;font style=&quot;vertical-align: inherit&quot;&gt;&lt;font style=&quot;vertical-align: inherit&quot;&gt;试卷下载&lt;/font&gt;&lt;/font&gt;" style="rounded=1;whiteSpace=wrap;html=1;fontSize=12;glass=0;strokeWidth=1;shadow=0;fillColor=#d5e8d4;strokeColor=#82b366;" vertex="1" parent="WIyWlLk6GJQsqaUBKTNV-1">
          <mxGeometry x="160" y="800" width="120" height="40" as="geometry" />
        </mxCell>
        <mxCell id="Pjd6Ebtt9k18y8woGf1v-33" value="" style="edgeStyle=none;rounded=0;orthogonalLoop=1;jettySize=auto;html=1;" edge="1" parent="WIyWlLk6GJQsqaUBKTNV-1" source="Pjd6Ebtt9k18y8woGf1v-22" target="Pjd6Ebtt9k18y8woGf1v-21">
          <mxGeometry relative="1" as="geometry" />
        </mxCell>
        <mxCell id="Pjd6Ebtt9k18y8woGf1v-22" value="&lt;font style=&quot;vertical-align: inherit&quot;&gt;&lt;font style=&quot;vertical-align: inherit&quot;&gt;试卷管理（多版本）&lt;/font&gt;&lt;/font&gt;" style="rounded=1;whiteSpace=wrap;html=1;fontSize=12;glass=0;strokeWidth=1;shadow=0;fillColor=#d5e8d4;strokeColor=#82b366;" vertex="1" parent="WIyWlLk6GJQsqaUBKTNV-1">
          <mxGeometry x="160" y="720" width="120" height="35" as="geometry" />
        </mxCell>
        <mxCell id="Pjd6Ebtt9k18y8woGf1v-31" value="多条试题" style="edgeStyle=none;rounded=0;orthogonalLoop=1;jettySize=auto;html=1;exitX=0.5;exitY=1;exitDx=0;exitDy=0;entryX=0.5;entryY=0;entryDx=0;entryDy=0;" edge="1" parent="WIyWlLk6GJQsqaUBKTNV-1" source="Pjd6Ebtt9k18y8woGf1v-28" target="Pjd6Ebtt9k18y8woGf1v-19">
          <mxGeometry relative="1" as="geometry" />
        </mxCell>
        <mxCell id="Pjd6Ebtt9k18y8woGf1v-51" value="no" style="edgeStyle=none;rounded=0;orthogonalLoop=1;jettySize=auto;html=1;" edge="1" parent="WIyWlLk6GJQsqaUBKTNV-1" source="Pjd6Ebtt9k18y8woGf1v-28">
          <mxGeometry relative="1" as="geometry">
            <mxPoint x="110" y="530" as="targetPoint" />
          </mxGeometry>
        </mxCell>
        <mxCell id="Pjd6Ebtt9k18y8woGf1v-28" value="&lt;font style=&quot;vertical-align: inherit&quot;&gt;&lt;font style=&quot;vertical-align: inherit&quot;&gt;专业、年级、学科、知识点&lt;/font&gt;&lt;/font&gt;" style="rhombus;whiteSpace=wrap;html=1;fillColor=#f8cecc;strokeColor=#b85450;" vertex="1" parent="WIyWlLk6GJQsqaUBKTNV-1">
          <mxGeometry x="160" y="490" width="120" height="80" as="geometry" />
        </mxCell>
        <mxCell id="Pjd6Ebtt9k18y8woGf1v-37" value="&lt;font style=&quot;vertical-align: inherit&quot;&gt;&lt;font style=&quot;vertical-align: inherit&quot;&gt;结束&lt;/font&gt;&lt;/font&gt;" style="rounded=1;whiteSpace=wrap;html=1;fontSize=12;glass=0;strokeWidth=1;shadow=0;fillColor=#dae8fc;strokeColor=#6c8ebf;" vertex="1" parent="WIyWlLk6GJQsqaUBKTNV-1">
          <mxGeometry x="160" y="880" width="120" height="40" as="geometry" />
        </mxCell>
        <mxCell id="Pjd6Ebtt9k18y8woGf1v-40" value="" style="endArrow=classic;html=1;" edge="1" parent="WIyWlLk6GJQsqaUBKTNV-1">
          <mxGeometry width="50" height="50" relative="1" as="geometry">
            <mxPoint x="380" y="900" as="sourcePoint" />
            <mxPoint x="280" y="899.5" as="targetPoint" />
          </mxGeometry>
        </mxCell>
        <mxCell id="Pjd6Ebtt9k18y8woGf1v-49" style="edgeStyle=none;rounded=0;orthogonalLoop=1;jettySize=auto;html=1;" edge="1" parent="WIyWlLk6GJQsqaUBKTNV-1" source="Pjd6Ebtt9k18y8woGf1v-48">
          <mxGeometry relative="1" as="geometry">
            <mxPoint x="10" y="900" as="targetPoint" />
          </mxGeometry>
        </mxCell>
        <mxCell id="Pjd6Ebtt9k18y8woGf1v-48" value="无知识点" style="rounded=1;whiteSpace=wrap;html=1;fillColor=#e1d5e7;strokeColor=#9673a6;" vertex="1" parent="WIyWlLk6GJQsqaUBKTNV-1">
          <mxGeometry x="-50" y="350" width="120" height="40" as="geometry" />
        </mxCell>
        <mxCell id="Pjd6Ebtt9k18y8woGf1v-50" value="" style="endArrow=classic;html=1;" edge="1" parent="WIyWlLk6GJQsqaUBKTNV-1">
          <mxGeometry width="50" height="50" relative="1" as="geometry">
            <mxPoint x="10" y="900" as="sourcePoint" />
            <mxPoint x="160" y="899.5" as="targetPoint" />
          </mxGeometry>
        </mxCell>
        <mxCell id="Pjd6Ebtt9k18y8woGf1v-53" style="edgeStyle=none;rounded=0;orthogonalLoop=1;jettySize=auto;html=1;" edge="1" parent="WIyWlLk6GJQsqaUBKTNV-1" source="Pjd6Ebtt9k18y8woGf1v-52">
          <mxGeometry relative="1" as="geometry">
            <mxPoint x="70" y="900" as="targetPoint" />
          </mxGeometry>
        </mxCell>
        <mxCell id="Pjd6Ebtt9k18y8woGf1v-52" value="无相关试题" style="rounded=1;whiteSpace=wrap;html=1;fillColor=#e1d5e7;strokeColor=#9673a6;" vertex="1" parent="WIyWlLk6GJQsqaUBKTNV-1">
          <mxGeometry x="20" y="510" width="90" height="40" as="geometry" />
        </mxCell>
        <mxCell id="Pjd6Ebtt9k18y8woGf1v-54" style="edgeStyle=none;rounded=0;orthogonalLoop=1;jettySize=auto;html=1;entryX=0.5;entryY=0;entryDx=0;entryDy=0;" edge="1" parent="WIyWlLk6GJQsqaUBKTNV-1" source="Pjd6Ebtt9k18y8woGf1v-22" target="Pjd6Ebtt9k18y8woGf1v-22">
          <mxGeometry relative="1" as="geometry" />
        </mxCell>
        <mxCell id="Pjd6Ebtt9k18y8woGf1v-57" style="edgeStyle=none;rounded=0;orthogonalLoop=1;jettySize=auto;html=1;entryX=0.5;entryY=0;entryDx=0;entryDy=0;" edge="1" parent="WIyWlLk6GJQsqaUBKTNV-1" source="Pjd6Ebtt9k18y8woGf1v-55">
          <mxGeometry relative="1" as="geometry">
            <mxPoint x="-320" y="200" as="targetPoint" />
          </mxGeometry>
        </mxCell>
        <mxCell id="Pjd6Ebtt9k18y8woGf1v-55" value="开始" style="rounded=1;whiteSpace=wrap;html=1;fillColor=#dae8fc;strokeColor=#6c8ebf;" vertex="1" parent="WIyWlLk6GJQsqaUBKTNV-1">
          <mxGeometry x="-380" y="80" width="120" height="40" as="geometry" />
        </mxCell>
        <mxCell id="Pjd6Ebtt9k18y8woGf1v-58" value="结束" style="rounded=1;whiteSpace=wrap;html=1;fillColor=#dae8fc;strokeColor=#6c8ebf;" vertex="1" parent="WIyWlLk6GJQsqaUBKTNV-1">
          <mxGeometry x="-380" y="530" width="120" height="40" as="geometry" />
        </mxCell>
        <mxCell id="Pjd6Ebtt9k18y8woGf1v-61" style="edgeStyle=none;rounded=0;orthogonalLoop=1;jettySize=auto;html=1;" edge="1" parent="WIyWlLk6GJQsqaUBKTNV-1" source="Pjd6Ebtt9k18y8woGf1v-60">
          <mxGeometry relative="1" as="geometry">
            <mxPoint x="-320" y="300" as="targetPoint" />
          </mxGeometry>
        </mxCell>
        <mxCell id="Pjd6Ebtt9k18y8woGf1v-60" value="专业ID、专业名称、专业标识、创建人、创建时间、机构ID" style="rhombus;whiteSpace=wrap;html=1;fillColor=#f8cecc;strokeColor=#b85450;" vertex="1" parent="WIyWlLk6GJQsqaUBKTNV-1">
          <mxGeometry x="-390" y="160" width="130" height="60" as="geometry" />
        </mxCell>
        <mxCell id="Pjd6Ebtt9k18y8woGf1v-62" value="缺少字段" style="rounded=1;whiteSpace=wrap;html=1;fillColor=#e1d5e7;strokeColor=#9673a6;" vertex="1" parent="WIyWlLk6GJQsqaUBKTNV-1">
          <mxGeometry x="-580" y="290" width="120" height="40" as="geometry" />
        </mxCell>
        <mxCell id="Pjd6Ebtt9k18y8woGf1v-65" style="edgeStyle=none;rounded=0;orthogonalLoop=1;jettySize=auto;html=1;entryX=0;entryY=0.5;entryDx=0;entryDy=0;" edge="1" parent="WIyWlLk6GJQsqaUBKTNV-1" source="Pjd6Ebtt9k18y8woGf1v-63" target="Pjd6Ebtt9k18y8woGf1v-64">
          <mxGeometry relative="1" as="geometry" />
        </mxCell>
        <mxCell id="Pjd6Ebtt9k18y8woGf1v-66" style="edgeStyle=none;rounded=0;orthogonalLoop=1;jettySize=auto;html=1;entryX=1;entryY=0.5;entryDx=0;entryDy=0;" edge="1" parent="WIyWlLk6GJQsqaUBKTNV-1" source="Pjd6Ebtt9k18y8woGf1v-63" target="Pjd6Ebtt9k18y8woGf1v-62">
          <mxGeometry relative="1" as="geometry" />
        </mxCell>
        <mxCell id="Pjd6Ebtt9k18y8woGf1v-63" value="提交" style="shape=parallelogram;perimeter=parallelogramPerimeter;whiteSpace=wrap;html=1;fixedSize=1;fillColor=#fff2cc;strokeColor=#d6b656;" vertex="1" parent="WIyWlLk6GJQsqaUBKTNV-1">
          <mxGeometry x="-380" y="290" width="120" height="40" as="geometry" />
        </mxCell>
        <mxCell id="Pjd6Ebtt9k18y8woGf1v-64" value="缺少字段" style="rounded=1;whiteSpace=wrap;html=1;fillColor=#e1d5e7;strokeColor=#9673a6;" vertex="1" parent="WIyWlLk6GJQsqaUBKTNV-1">
          <mxGeometry x="-180" y="290" width="120" height="40" as="geometry" />
        </mxCell>
      </root>
    </mxGraphModel>
  </diagram>
</mxfile>
